
<svg xmlns="http://www.w3.org/2000/svg" viewBox="0 0 240 240">
  <defs>
    <linearGradient id="solanaGradientTG" x1="0%" y1="0%" x2="100%" y2="100%">
      <stop offset="0%" style="stop-color:#00FFA3; stop-opacity:1" />
      <stop offset="100%" style="stop-color:#DC1FFF; stop-opacity:1" />
    </linearGradient>
  </defs>
  <path fill="url(#solanaGradientTG)" d="M120,0C53.73,0,0,53.73,0,120s53.73,120,120,120s120-53.73,120-120S186.27,0,120,0z 
    M176.89,81.1l-21.4,100.88c-1.6,7.07-5.81,8.82-11.77,5.5l-32.5-23.95l-15.68,15.1c-1.73,1.73-3.18,3.18-6.51,3.18l2.34-33.09
    l60.18-54.28c2.61-2.61-0.57-4.07-4.03-1.46l-74.31,46.69l-32.01-10.01c-6.96-2.17-7.1-6.96,1.46-10.31l125.17-48.26
    C174.07,65.12,178.5,69.12,176.89,81.1z"/>
</svg>
