
<svg xmlns="http://www.w3.org/2000/svg" viewBox="0 0 512 512">
  <defs>
    <linearGradient id="solanaGradient" x1="0%" y1="0%" x2="100%" y2="100%">
      <stop offset="0%" style="stop-color:#00FFA3; stop-opacity:1" />
      <stop offset="100%" style="stop-color:#DC1FFF; stop-opacity:1" />
    </linearGradient>
  </defs>
  <path fill="url(#solanaGradient)" d="M459.4 151.7c.3 4.1.3 8.3.3 12.5 0 127.6-97.2 274.8-274.8 
  274.8-54.6 0-105.5-15.8-148.3-42.7 7.6.9 15.2 1.2 23.1 1.2 45.4 
  0 87.1-15.4 120.2-41.6-42.5-.9-78.3-28.8-90.6-67.3 5.9.9 11.8 
  1.5 18 1.5 8.6 0 17-1.2 24.9-3.3-44.4-9-77.8-48.1-77.8-95v-1.2c13.1 
  7.3 28.2 11.8 44.2 12.3-26.3-17.6-43.7-47.8-43.7-81.7 0-18.1 
  4.8-35.1 13.1-49.7 47.8 58.8 119.4 97.5 199.9 
  101.5-1.5-7.3-2.4-14.9-2.4-22.5 0-54.6 44.4-99 99-99 
  28.5 0 54.2 12 72.3 31.1 22.5-4.1 43.4-12.5 
  62.4-23.7-7.3 22.8-22.8 42-42.5 54.2 
  20-2.1 39.1-7.6 56.8-15.2-13.5 19.7-30.4 
  37.1-49.9 50.9z"/>
</svg>
